<?xml version="1.0" standalone="no"?>
<!DOCTYPE svg PUBLIC "-//W3C//DTD SVG 20010904//EN"
 "http://www.w3.org/TR/2001/REC-SVG-20010904/DTD/svg10.dtd">
<svg version="1.0" xmlns="http://www.w3.org/2000/svg"
 width="1024.000000pt" height="742.000000pt" viewBox="0 0 1024.000000 742.000000"
 preserveAspectRatio="xMidYMid meet">

<g transform="translate(0.000000,742.000000) scale(0.100000,-0.100000)"
fill="#000000" stroke="none">
<path d="M3965 4879 c-27 -4 -124 -31 -214 -59 -91 -28 -192 -58 -225 -67 -78
-20 -221 -20 -306 1 -79 19 -211 20 -263 2 -94 -34 -151 -109 -130 -173 15
-45 62 -62 198 -69 81 -4 160 -15 243 -35 181 -44 235 -47 365 -15 137 33 202
34 248 3 19 -12 66 -71 107 -132 40 -61 96 -136 123 -167 27 -31 49 -59 49
-62 0 -20 -35 2 -81 51 -161 173 -203 210 -264 233 -96 35 -202 26 -385 -35
-137 -46 -151 -49 -250 -49 -75 0 -141 8 -231 27 -70 15 -155 27 -191 27 -153
0 -303 -75 -389 -193 -39 -54 -40 -117 -3 -146 36 -28 95 -27 214 4 52 14 121
25 152 25 49 0 62 -4 100 -34 168 -134 323 -160 588 -96 170 40 214 38 338
-19 61 -28 112 -44 161 -50 40 -5 75 -11 77 -14 11 -10 -95 -91 -161 -122 -70
-34 -234 -85 -395 -125 -150 -36 -304 -124 -446 -254 -54 -49 -63 -54 -75 -40
-22 27 -87 54 -128 54 -55 0 -71 -8 -86 -43 -12 -28 -16 -30 -72 -32 -74 -3
-127 -27 -143 -65 -7 -16 -9 -33 -6 -38 3 -6 -11 -13 -31 -17 -86 -16 -122
-109 -67 -174 14 -17 33 -31 41 -31 10 0 13 -6 9 -16 -3 -9 -6 -17 -6 -20 0
-2 -37 -21 -82 -43 -154 -73 -288 -95 -558 -93 -107 1 -203 -1 -213 -4 -21 -7
-47 -54 -47 -88 0 -13 12 -39 26 -56 23 -27 25 -34 15 -56 -25 -56 -12 -102
49 -169 16 -16 31 -45 35 -62 9 -45 76 -100 144 -120 150 -43 400 32 550 167
l43 39 32 -47 c17 -26 53 -60 80 -77 43 -26 58 -30 120 -29 39 0 94 8 121 17
51 18 69 28 223 134 l91 63 47 -21 c62 -28 184 -49 262 -45 63 4 76 -5 50 -33
-11 -10 -9 -15 6 -27 14 -10 51 -14 130 -14 113 -1 210 -10 302 -30 47 -10 54
-15 77 -58 14 -26 37 -92 51 -147 52 -203 88 -263 172 -284 96 -24 200 26 292
140 l53 67 84 -6 c67 -4 95 -1 132 13 72 27 134 77 173 139 30 47 42 57 85 72
114 37 175 94 175 160 0 37 -34 84 -61 84 -28 0 -23 15 9 29 42 20 122 23 176
9 l49 -13 2 -195 c2 -217 16 -303 79 -480 l34 -95 -120 -3 c-186 -4 -388 -51
-465 -109 -41 -30 -41 -40 0 -48 87 -20 88 -23 7 -66 -79 -43 -159 -101 -144
-105 5 -2 35 -8 66 -14 l58 -11 -30 -37 c-28 -35 -63 -116 -54 -124 2 -3 54 3
116 13 61 10 147 21 190 25 l78 7 57 -60 c86 -88 134 -108 263 -107 92 0 115
4 187 30 107 40 182 86 252 156 l57 56 115 0 c124 1 232 19 340 58 l68 25 95
-20 c136 -28 176 -61 176 -147 0 -53 24 -102 55 -110 46 -11 91 3 257 81 90
43 252 114 361 160 109 45 200 85 203 88 10 10 -66 62 -113 78 l-47 15 57 33
c31 18 57 39 57 46 0 27 -61 48 -137 48 -40 0 -73 2 -73 4 0 2 16 18 36 35 32
29 34 33 18 39 -11 4 -47 8 -81 8 -55 1 -72 -4 -147 -43 -46 -24 -87 -42 -90
-39 -3 4 18 22 47 41 28 19 78 57 111 85 51 44 67 52 118 59 56 7 61 6 96 -21
39 -31 97 -51 148 -51 17 0 42 -8 55 -19 38 -29 86 -51 113 -51 16 0 37 -13
57 -35 94 -103 249 -32 249 114 0 34 5 42 34 61 51 31 96 86 96 118 0 15 -9
40 -20 57 -15 22 -18 39 -13 72 5 39 2 47 -23 74 -16 17 -46 40 -66 50 -21 11
-38 25 -38 33 0 7 -17 32 -37 55 -71 79 -154 64 -251 -45 -55 -62 -74 -65
-123 -25 -23 19 -23 20 -4 26 65 23 146 67 186 102 45 39 49 40 138 46 76 5
120 15 259 63 132 46 187 60 262 66 52 5 118 12 147 14 29 3 99 -1 155 -10 80
-13 120 -14 178 -6 108 14 213 45 304 91 l79 40 146 -5 c80 -2 159 -6 176 -8
26 -3 32 2 57 47 33 62 46 158 30 234 -14 65 -60 125 -142 182 -57 41 -58 42
-48 76 16 60 -18 155 -67 187 -15 10 -54 23 -88 29 -34 6 -75 21 -92 33 -102
75 -284 66 -351 -19 -11 -12 -46 -34 -79 -47 -118 -46 -267 -171 -376 -316
-56 -74 -138 -133 -223 -160 -64 -20 -301 -74 -326 -74 -6 0 -10 13 -10 28 0
18 -10 38 -29 56 -26 25 -43 30 -131 42 -111 14 -119 18 -250 140 -215 201
-396 305 -603 346 -88 17 -129 19 -297 15 -201 -5 -319 -25 -440 -73 -37 -15
-49 -16 -94 -4 -141 36 -283 140 -572 422 -66 65 -129 119 -140 120 -10 1 -26
2 -35 3 -9 0 -25 7 -34 15 -36 30 -239 12 -308 -27 -4 -2 13 -19 37 -36 24
-18 66 -49 92 -69 63 -48 123 -65 164 -48 16 7 30 16 30 21 0 24 18 5 28 -30
22 -70 25 -68 -109 -76 -96 -6 -125 -11 -139 -25 -11 -11 -22 -15 -31 -9 -25
15 -57 10 -87 -16 -31 -26 -49 -79 -72 -206 -7 -37 -20 -80 -30 -96 -17 -28
-22 -30 -104 -37 -85 -6 -87 -6 -109 20 -30 34 -72 34 -124 0 -41 -28 -69 -32
-175 -28 -68 2 -71 10 -27 71 21 28 37 40 47 36 35 -13 191 -17 257 -6 120 20
206 84 222 163 3 15 14 30 24 33 56 18 75 104 40 174 -20 38 -81 100 -120 121
-17 9 -19 14 -11 30 10 19 14 62 11 117 0 12 -16 38 -35 58 -19 20 -41 47 -50
60 -8 13 -41 36 -72 51 -50 24 -67 27 -148 26 -50 0 -105 -5 -123 -11 -28 -8
-33 -7 -39 12 -4 12 -6 80 -6 152 2 211 -18 286 -96 368 -49 51 -105 82 -170
96 -59 12 -75 12 -147 0z m195 -92 c25 -12 59 -41 77 -65 51 -67 63 -125 63
-291 l0 -146 -31 -14 c-29 -13 -32 -12 -61 15 -17 16 -63 79 -103 139 -77 119
-129 172 -176 182 -16 3 -32 10 -35 15 -10 15 25 99 59 142 l30 38 -34 -7
c-19 -4 -31 -4 -28 -1 12 13 95 24 144 19 28 -2 70 -14 95 -26z m-253 -3 c-3
-3 -12 -4 -19 -1 -8 3 -5 6 6 6 11 1 17 -2 13 -5z m-72 -24 c-3 -5 -14 -10
-23 -9 -14 0 -13 2 3 9 27 11 27 11 20 0z m-235 -86 c-178 -68 -218 -74 -330
-44 -102 27 -318 41 -305 20 6 -9 4 -11 -5 -5 -10 6 -12 3 -8 -13 6 -22 -6
-30 -16 -13 -11 17 36 61 76 72 33 8 74 7 187 -6 178 -21 310 -16 431 19 134
38 126 29 -30 -30z m-393 -72 c6 -4 -32 -6 -85 -4 -145 4 -161 9 -37 10 61 1
115 -2 122 -6z m64 -27 c19 -8 27 -14 19 -14 -14 0 -72 28 -59 29 4 0 22 -7
40 -15z m552 -2 c-13 -2 -33 -2 -45 0 -13 2 -3 4 22 4 25 0 35 -2 23 -4z m-96
-9 c-3 -3 -12 -4 -19 -1 -8 3 -5 6 6 6 11 1 17 -2 13 -5z m-372 -20 l40 -15
-35 6 c-19 3 -39 10 -44 15 -13 13 -8 12 39 -6z m315 6 c-14 -4 -34 -8 -45 -8
l-20 -1 20 9 c11 5 31 8 45 8 l25 0 -25 -8z m266 -6 c18 -14 18 -14 -6 -3 -31
14 -36 19 -24 19 6 0 19 -7 30 -16z m-356 -14 c-14 -4 -61 -8 -105 -7 l-80 1
85 6 c126 9 129 9 100 0z m418 -45 c-3 -3 -9 2 -12 12 -6 14 -5 15 5 6 7 -7
10 -15 7 -18z m57 -85 c48 -95 44 -103 -5 -10 -42 79 -43 80 -35 80 3 0 21
-31 40 -70z m-274 -72 c52 -15 108 -64 178 -157 111 -145 170 -178 267 -147
31 10 52 21 48 27 -3 6 9 26 27 45 44 46 32 53 -16 9 -22 -19 -41 -35 -44 -35
-4 0 13 18 35 40 28 26 48 37 61 34 12 -3 25 2 34 13 13 17 13 17 -4 4 -9 -8
-20 -11 -23 -8 -6 6 31 28 43 26 4 -1 25 5 45 14 46 21 161 22 203 2 28 -13
25 -13 -55 -14 -67 -1 -96 -6 -136 -25 -59 -27 -116 -90 -132 -145 -16 -50
-15 -140 1 -171 19 -39 74 -70 122 -70 56 0 153 49 200 102 l37 41 53 -12 c87
-20 195 -110 195 -164 0 -15 -9 -32 -22 -41 -20 -14 -23 -13 -39 6 -10 11 -21
29 -24 39 -8 25 -36 24 -64 -2 -17 -17 -21 -27 -16 -52 4 -18 16 -40 27 -50
21 -17 21 -18 2 -32 -20 -14 -54 -26 -54 -19 0 3 11 9 25 14 31 12 34 34 3 25
-13 -4 -30 -9 -39 -11 -9 -3 -40 5 -68 16 -61 24 -131 26 -175 5 -33 -16 -66
-61 -66 -89 0 -27 48 -31 97 -7 47 23 73 27 73 11 0 -5 7 -7 15 -3 10 3 15 1
13 -8 -2 -7 6 -14 17 -16 16 -3 17 -2 5 6 -8 6 -10 11 -4 11 5 0 14 -4 20 -10
15 -15 97 -23 88 -8 -5 8 -2 9 11 4 11 -4 22 -2 26 6 4 7 10 10 13 7 3 -3 0
-14 -7 -23 -21 -29 -106 -37 -297 -30 -167 6 -178 6 -228 -16 -49 -21 -67 -40
-39 -40 6 -1 25 -11 41 -24 l28 -24 -20 -55 c-12 -30 -24 -78 -28 -106 -4 -35
-11 -51 -21 -51 -17 0 -191 50 -277 80 -67 23 -96 25 -96 8 0 -30 46 -52 237
-113 112 -36 225 -75 251 -87 26 -11 74 -22 109 -23 68 -4 85 6 97 60 19 77
104 213 126 200 18 -11 11 -32 -24 -74 -37 -45 -53 -84 -58 -145 -3 -36 -1
-40 26 -47 37 -10 37 -10 65 48 27 54 116 169 138 177 8 3 12 10 9 15 -3 5 3
7 14 4 43 -11 12 -82 -67 -151 -63 -54 -87 -94 -81 -134 3 -20 9 -23 47 -24
43 -2 56 6 138 83 7 6 38 26 68 43 30 17 53 36 50 41 -4 5 -1 9 4 9 16 0 13
-27 -5 -55 -8 -13 -71 -58 -139 -100 -100 -62 -129 -86 -150 -120 -14 -24 -25
-50 -25 -57 0 -8 23 -36 50 -63 51 -50 64 -88 35 -99 -8 -3 -15 -1 -15 3 0 5
6 12 13 14 6 3 3 6 -9 6 -11 1 -31 12 -44 26 -12 13 -26 22 -30 20 -5 -3 -11
2 -14 11 -3 8 -2 12 4 9 6 -3 7 1 4 9 -3 9 -10 13 -15 10 -5 -3 -9 -2 -8 3 4
24 -6 33 -54 47 -34 10 -71 31 -100 57 -52 45 -61 39 -21 -13 19 -24 16 -23
-10 6 -25 28 -33 42 -24 47 16 10 -2 31 -59 70 -56 39 -466 179 -543 186 -52
5 -59 3 -74 -18 -9 -13 -16 -29 -16 -35 0 -12 91 -54 116 -54 8 0 13 -4 11 -9
-1 -5 42 -41 97 -81 l98 -73 20 24 c15 19 15 15 -4 -19 -13 -24 -39 -62 -59
-85 l-36 -41 -119 22 c-309 59 -450 57 -427 -6 4 -9 26 -49 49 -88 57 -97 59
-106 29 -134 -16 -15 -24 -18 -20 -9 5 13 -3 16 -42 18 -57 2 -115 17 -164 42
l-37 18 -44 -39 c-35 -33 -40 -42 -28 -50 8 -5 21 -10 29 -10 8 0 11 -3 8 -6
-8 -8 -67 15 -67 26 0 4 11 15 25 24 34 22 65 57 65 73 0 20 -60 16 -96 -6
-17 -10 -67 -48 -111 -84 -44 -35 -109 -84 -144 -107 -62 -43 -157 -86 -166
-76 -3 3 -12 -1 -20 -9 -8 -8 -28 -15 -44 -15 -22 0 -29 5 -29 20 0 12 -9 24
-22 29 -38 15 -65 53 -88 122 -11 37 -27 74 -34 84 -11 16 -15 16 -42 2 -16
-8 -63 -46 -104 -84 -41 -37 -95 -78 -120 -90 -117 -57 -201 -93 -217 -93 -10
1 0 7 21 15 49 17 90 47 94 68 3 13 -16 16 -135 20 -129 4 -204 18 -287 52
-16 7 -17 5 -11 -16 5 -18 1 -16 -15 10 -11 18 -19 36 -16 39 3 2 8 -3 12 -12
3 -9 10 -14 14 -11 4 3 25 -2 46 -11 47 -20 204 -22 279 -4 81 18 135 46 135
69 0 25 -25 30 -70 14 -19 -7 -48 -12 -65 -11 -22 0 -16 3 22 12 28 6 54 13
56 16 3 3 -34 5 -81 6 -93 1 -233 27 -269 50 -13 8 -23 24 -23 36 0 18 -4 20
-36 15 -20 -3 -33 -3 -30 1 4 4 85 7 179 8 259 2 421 35 578 115 41 21 85 39
97 39 40 0 69 -72 92 -235 6 -44 21 -99 32 -122 21 -45 16 -43 106 -47 10 -1
16 6 16 16 -1 11 27 35 82 68 75 46 88 51 113 42 31 -11 41 -5 152 90 l57 48
-19 61 c-22 69 -24 153 -7 211 14 46 105 150 187 211 66 51 144 97 341 202
163 87 205 114 305 196 147 119 276 279 275 343 0 18 -5 18 -67 10 -155 -19
-256 -2 -393 66 -61 31 -167 56 -200 47 -18 -5 -20 0 -20 48 0 42 8 68 35 119
19 37 35 71 35 78 0 29 -240 -47 -495 -157 -120 -52 -169 -59 -222 -32 -38 20
-159 47 -210 47 -20 0 -61 -8 -91 -17 -54 -17 -54 -17 -73 5 -18 22 -18 22
-28 3 -15 -27 -14 -34 4 -27 11 4 15 -1 15 -19 0 -20 -5 -25 -25 -25 -21 0
-24 4 -20 31 5 38 54 93 109 121 106 54 196 60 351 23 57 -13 128 -28 158 -31
71 -8 196 10 289 42 179 62 310 79 399 52z m357 -68 c17 -27 29 -50 27 -50 -6
0 -65 83 -65 92 0 16 7 7 38 -42z m172 -33 c0 -7 -17 -25 -39 -39 -36 -24 -40
-24 -65 -9 -14 8 -26 20 -26 25 0 5 8 2 18 -7 26 -24 45 -21 78 12 35 35 34
34 34 18z m-1557 -94 c-13 -2 -35 -2 -50 0 -16 2 -5 4 22 4 28 0 40 -2 28 -4z
m-133 -18 c-30 -8 -62 -14 -70 -14 -24 1 72 27 100 27 14 0 0 -6 -30 -13z
m273 -36 c42 -27 77 -52 77 -55 0 -6 -10 0 -84 49 -32 22 -70 43 -85 47 -21 7
-22 8 -6 9 12 1 56 -22 98 -50z m1883 17 c29 -29 34 -41 34 -82 0 -71 -6 -77
-68 -63 l-52 11 0 68 c0 38 -3 75 -6 84 -5 13 1 16 26 16 23 0 41 -9 66 -34z
m-190 8 c80 -38 77 -130 -8 -211 -95 -91 -228 -62 -228 49 0 54 26 97 82 136
70 47 99 52 154 26z m-997 -78 c-2 -2 -29 -6 -59 -9 -36 -4 -46 -3 -30 3 25 8
97 13 89 6z m84 -3 c-13 -2 -35 -2 -50 0 -16 2 -5 4 22 4 28 0 40 -2 28 -4z
m-653 -28 c14 -8 21 -14 15 -14 -5 0 -21 6 -35 14 -14 8 -20 14 -15 14 6 0 21
-6 35 -14z m439 11 c-2 -2 -17 -6 -34 -10 -22 -5 -26 -4 -15 4 14 9 59 15 49
6z m-72 -22 c-3 -3 -12 -4 -19 -1 -8 3 -5 6 6 6 11 1 17 -2 13 -5z m-228 -20
c9 -8 -75 -2 -94 6 -12 5 1 6 35 3 30 -3 57 -7 59 -9z m184 9 c-7 -2 -19 -2
-25 0 -7 3 -2 5 12 5 14 0 19 -2 13 -5z m484 -13 c21 -11 31 -20 23 -20 -8 0
-28 9 -45 20 -39 26 -26 26 22 0z m1466 -21 c12 -7 25 -16 28 -22 12 -17 -3
-47 -23 -47 -25 0 -138 50 -138 61 0 18 102 24 133 8z m-1398 -17 c-3 -3 -11
0 -18 7 -9 10 -8 11 6 5 10 -3 15 -9 12 -12z m252 12 c-3 -3 -12 -4 -19 -1 -8
3 -5 6 6 6 11 1 17 -2 13 -5z m-40 -10 c-3 -3 -12 -4 -19 -1 -8 3 -5 6 6 6 11
1 17 -2 13 -5z m-59 -11 c-10 -2 -26 -2 -35 0 -10 3 -2 5 17 5 19 0 27 -2 18
-5z m132 -48 c-7 -8 -18 -15 -24 -15 -6 0 -2 7 8 15 25 19 32 19 16 0z m-59
-26 c-14 -5 -31 -15 -38 -21 -10 -8 -12 -7 -7 5 6 16 24 24 54 25 8 0 4 -4 -9
-9z m-63 -64 c-6 -14 -15 -25 -19 -25 -4 0 -22 -12 -41 -27 -19 -15 -11 -4 17
24 28 28 51 52 52 52 2 1 -3 -10 -9 -24z m802 -99 c0 -9 -41 8 -52 22 -11 13
-8 12 20 -2 17 -9 32 -18 32 -20z m-955 -21 c-16 -14 -34 -25 -39 -25 -12 0
-3 9 31 31 40 25 43 22 8 -6z m638 -22 c-7 -2 -21 -2 -30 0 -10 3 -4 5 12 5
17 0 24 -2 18 -5z m107 -24 c18 -11 -34 -1 -65 13 -13 5 -9 6 15 2 19 -4 42
-10 50 -15z m-840 1 c-8 -5 -19 -10 -25 -10 -5 0 -3 5 5 10 8 5 20 10 25 10 6
0 3 -5 -5 -10z m1295 -23 c7 -38 -6 -95 -36 -159 -11 -24 -17 -32 -14 -18 14
52 17 160 5 175 -15 18 -5 35 20 35 14 0 21 -9 25 -33z m79 1 c-4 -6 -10 -5
-15 3 -14 22 -10 33 6 19 8 -7 12 -17 9 -22z m-459 12 c-3 -5 -18 -9 -33 -9
l-27 1 30 8 c17 4 31 8 33 9 2 0 0 -3 -3 -9z m595 -26 c0 -19 -5 -45 -11 -57
-14 -27 -139 -197 -145 -197 -3 0 14 28 37 61 44 65 74 156 65 194 -7 27 0 35
31 35 20 0 23 -5 23 -36z m-1585 6 c-11 -5 -27 -9 -35 -9 -9 0 -8 4 5 9 11 5
27 9 35 9 9 0 8 -4 -5 -9z m1312 -32 c-3 -7 -5 -2 -5 12 0 14 2 19 5 13 2 -7
2 -19 0 -25z m-1382 12 c-11 -5 -27 -9 -35 -9 -9 0 -8 4 5 9 11 5 27 9 35 9 9
0 8 -4 -5 -9z m1571 -33 c-8 -19 -12 -37 -10 -40 3 -2 -3 -10 -12 -18 -10 -8
-15 -9 -13 -4 2 6 13 32 23 58 10 26 21 46 23 43 2 -2 -2 -20 -11 -39z m-1681
3 c-11 -5 -27 -9 -35 -9 -9 0 -8 4 5 9 11 5 27 9 35 9 9 0 8 -4 -5 -9z m1482
-52 c-2 -13 -4 -5 -4 17 -1 22 1 32 4 23 2 -10 2 -28 0 -40z m-1597 18 c0 -3
-27 -15 -60 -27 -33 -12 -60 -26 -60 -30 0 -5 -7 -9 -17 -9 -19 0 -143 -71
-143 -82 0 -4 -5 -8 -11 -8 -35 0 86 77 200 127 75 32 91 37 91 29z m5807 -31
c60 -18 78 -36 94 -97 31 -115 -64 -227 -194 -228 -58 0 -109 20 -131 51 -22
33 -21 132 3 184 43 93 118 123 228 90z m-3883 -2 c7 -7 -52 -73 -67 -73 -9 0
44 79 54 80 3 0 9 -3 13 -7z m-337 -50 c-3 -10 -5 -4 -5 12 0 17 2 24 5 18 2
-7 2 -21 0 -30z m164 14 c-10 -9 -11 -8 -5 6 3 10 9 15 12 12 3 -3 0 -11 -7
-18z m295 -12 c13 -53 -58 -123 -168 -165 -61 -23 -68 -24 -68 -10 0 6 6 10
13 8 24 -4 85 23 108 50 33 37 71 103 64 110 -3 4 -9 2 -13 -4 -14 -20 -123
-104 -162 -124 -63 -32 -60 -23 5 14 33 19 89 60 124 90 36 31 70 56 78 56 7
0 15 -11 19 -25z m-1193 8 c-7 -2 -21 -2 -30 0 -10 3 -4 5 12 5 17 0 24 -2 18
-5z m2194 -140 c-36 -70 -73 -135 -83 -144 -11 -9 -68 -49 -129 -89 -60 -40
-139 -93 -175 -117 -36 -24 -74 -43 -85 -42 l-20 1 20 6 c11 4 40 21 64 37 23
17 57 38 75 47 17 10 27 18 21 18 -5 0 -2 5 8 11 9 6 15 14 12 19 -3 5 -15 0
-25 -10 -11 -11 -28 -20 -37 -19 -16 0 -16 1 -2 7 11 5 15 19 14 47 -3 115 -5
125 -21 125 -12 0 -14 9 -12 43 3 36 6 42 25 41 13 0 21 2 18 4 -3 3 1 12 8
21 10 14 10 14 -3 5 -8 -6 -32 -17 -53 -24 -20 -6 -35 -15 -32 -20 8 -12 -21
-31 -38 -24 -9 3 -32 -6 -53 -20 -21 -14 -40 -23 -43 -21 -5 6 -8 3 54 43 82
51 234 119 330 147 111 33 219 54 223 44 2 -4 -26 -65 -61 -136z m509 101 c83
-27 263 -111 301 -142 l23 -17 -67 -35 c-37 -19 -84 -45 -105 -57 -21 -13 -46
-23 -55 -23 -38 -1 -393 64 -393 71 0 7 80 144 127 218 18 28 46 26 169 -15z
m2464 21 c43 -22 60 -53 60 -107 0 -36 -4 -48 -15 -48 -11 0 -12 5 -5 25 11
30 -1 70 -25 79 -25 9 -55 -12 -62 -45 -9 -44 -14 -29 -16 45 -2 74 6 80 63
51z m-4280 0 c0 -2 -14 -20 -31 -40 -30 -34 -80 -48 -93 -27 -2 4 10 6 29 4
28 -3 37 1 61 32 29 35 34 41 34 31z m-173 -67 c-3 -8 -6 -5 -6 6 -1 11 2 17
5 13 3 -3 4 -12 1 -19z m-1883 -13 c-4 -8 -11 -15 -16 -15 -6 0 -18 -8 -27
-18 -9 -9 -25 -23 -36 -31 -11 -7 2 7 28 33 53 50 59 54 51 31z m5825 -158
c51 -83 199 -113 307 -63 37 17 61 37 84 72 18 27 34 50 36 52 4 6 186 -88
229 -119 101 -73 139 -179 97 -273 l-17 -39 -155 -4 c-142 -4 -162 -2 -237 20
-82 24 -243 111 -243 131 0 6 7 20 15 30 16 21 20 56 8 56 -5 0 -17 -7 -27
-15 -28 -21 -89 -19 -119 5 -14 11 -28 16 -31 11 -7 -11 9 -57 23 -66 18 -11
13 -20 -26 -40 -41 -22 -93 -96 -93 -132 0 -38 27 -79 60 -93 43 -18 93 -8
183 34 98 47 131 52 182 30 l40 -17 -53 -23 c-143 -64 -274 -77 -442 -44 -52
10 -98 16 -101 14 -3 -2 -64 -8 -135 -14 -137 -11 -148 -13 -292 -66 -106 -40
-235 -61 -403 -68 -93 -4 -135 -11 -211 -36 -52 -16 -98 -30 -102 -30 -9 0 31
77 46 86 6 4 39 8 72 9 64 2 178 42 173 60 -6 17 -58 17 -104 0 -26 -10 -54
-14 -70 -10 -25 6 -23 8 38 53 50 36 93 55 199 89 74 24 185 55 245 69 205 47
270 65 315 86 45 22 103 76 235 219 39 43 107 101 155 133 l85 56 6 -63 c3
-40 14 -77 28 -100z m-3983 115 c-16 -15 -25 -21 -21 -13 12 21 39 48 44 44 3
-2 -8 -16 -23 -31z m692 -36 l102 -69 -37 -31 c-21 -16 -72 -63 -113 -103
l-74 -74 -39 16 c-50 20 -168 45 -212 45 -26 0 -39 6 -51 25 -16 24 -15 27 13
73 24 39 36 48 68 55 60 12 159 64 197 102 18 19 35 33 38 32 3 -1 51 -33 108
-71z m-483 34 l20 -25 -22 19 c-13 11 -23 24 -23 29 0 6 1 8 3 6 1 -2 11 -15
22 -29z m-571 -12 c-16 -18 -32 -37 -36 -42 -5 -6 -8 -7 -8 -3 0 8 60 77 68
77 3 0 -7 -15 -24 -32z m-1746 -15 c30 -19 40 -32 36 -43 -56 -129 -78 -274
-56 -370 14 -57 3 -70 -58 -70 -34 0 -52 5 -65 20 -14 16 -16 23 -7 32 9 9 0
15 -40 25 -67 17 -135 81 -112 105 13 12 6 17 -48 39 -54 21 -63 28 -66 52 -3
23 2 30 30 41 18 8 60 16 93 19 33 3 62 6 65 6 2 1 -11 13 -29 29 l-33 27 20
25 c19 23 27 25 106 25 80 0 100 5 76 20 -5 3 -10 15 -10 26 0 28 47 25 98 -8z
m1942 13 c0 -2 -7 -7 -16 -10 -8 -3 -12 -2 -9 4 6 10 25 14 25 6z m-302 -17
c-2 -6 -7 -10 -11 -10 -4 1 -43 1 -87 1 -47 0 -80 4 -80 10 0 6 37 10 91 10
60 0 89 -4 87 -11z m262 -6 c-1 -5 -15 -24 -32 -43 -32 -36 -28 -24 7 23 21
28 25 31 25 20z m208 -14 c14 0 13 -2 -3 -9 -31 -13 -34 -12 -27 12 3 12 7 17
10 10 2 -6 11 -12 20 -13z m-1938 8 c0 -2 -10 -12 -22 -23 l-23 -19 19 23 c18
21 26 27 26 19z m2045 -17 c3 -5 -4 -6 -15 -3 -11 3 -22 9 -25 13 -3 5 4 6 15
3 11 -3 22 -9 25 -13z m-675 -23 l75 -3 -82 -2 c-73 -2 -83 0 -83 16 0 11 3
13 8 5 4 -7 39 -13 82 -16z m777 -49 c-41 -64 -49 -86 -37 -93 6 -4 10 -13 10
-21 0 -22 -35 -16 -48 9 -11 23 -13 59 -2 52 3 -2 18 18 33 45 28 49 69 89 75
71 2 -5 -12 -33 -31 -63z m-2203 2 c-10 -16 -20 -27 -22 -25 -5 5 26 55 34 55
3 0 -3 -13 -12 -30z m2936 14 c-8 -8 -23 -20 -34 -25 -13 -7 -9 -1 9 15 34 29
43 33 25 10z m-1379 -31 c-12 -20 -14 -14 -5 12 4 9 9 14 11 11 3 -2 0 -13 -6
-23z m154 -3 c-9 -16 -18 -30 -21 -30 -2 0 2 14 11 30 9 17 18 30 21 30 2 0
-2 -13 -11 -30z m422 8 c-3 -8 -6 -5 -6 6 -1 11 2 17 5 13 3 -3 4 -12 1 -19z
m-1260 -4 c-3 -3 -12 -4 -19 -1 -8 3 -5 6 6 6 11 1 17 -2 13 -5z m1094 -9
c-18 -8 -36 -15 -40 -15 -13 1 45 29 59 29 8 0 0 -6 -19 -14z m-1054 -1 c-3
-3 -12 -4 -19 -1 -8 3 -5 6 6 6 11 1 17 -2 13 -5z m560 -8 c4 -3 2 -11 -4 -17
-12 -12 -93 8 -93 24 0 10 86 4 97 -7z m-467 -23 c30 -11 31 -12 6 -8 -16 4
-43 13 -60 20 -23 11 -25 13 -6 8 14 -3 41 -12 60 -20z m848 -53 c-34 -33 -64
-60 -67 -60 -3 0 21 27 54 60 33 33 63 60 67 60 4 0 -21 -27 -54 -60z m-1898
-20 c-6 -42 -8 -47 -9 -20 -1 34 8 84 14 78 2 -2 0 -28 -5 -58z m1136 50 c8 0
14 -4 14 -9 0 -11 -49 -1 -57 12 -4 7 0 8 11 4 10 -4 24 -7 32 -7z m436 -12
c-7 -7 -12 -8 -12 -2 0 6 3 14 7 17 3 4 9 5 12 2 2 -3 -1 -11 -7 -17z m1298
18 c0 -2 -8 -10 -17 -17 -16 -13 -17 -12 -4 4 13 16 21 21 21 13z m1710 -6
c-8 -5 -19 -10 -25 -10 -5 0 -3 5 5 10 8 5 20 10 25 10 6 0 3 -5 -5 -10z
m-2874 -28 c-18 -16 -18 -16 -6 6 6 13 14 21 18 18 3 -4 -2 -14 -12 -24z
m-486 -8 c23 -9 39 -18 37 -20 -2 -3 -24 4 -48 15 -54 24 -45 27 11 5z m-195
-20 c24 -11 25 -13 5 -8 -14 4 -38 13 -55 20 -24 11 -25 13 -5 8 14 -4 39 -13
55 -20z m3442 -4 c-14 -11 -28 -20 -32 -20 -10 0 38 39 49 40 5 0 -3 -9 -17
-20z m-3152 -10 c13 -5 14 -9 5 -9 -8 0 -24 4 -35 9 -13 5 -14 9 -5 9 8 0 24
-4 35 -9z m741 -51 c-15 -12 -39 -34 -53 -48 -28 -29 -83 -137 -83 -163 0 -9
-4 -20 -10 -23 -5 -3 -10 0 -10 7 0 8 -18 31 -40 51 -21 21 -37 44 -34 51 7
18 84 80 162 132 58 38 68 42 81 29 13 -12 11 -17 -13 -36z m1124 41 c13 -9
13 -11 0 -20 -8 -5 -19 -10 -25 -10 -5 0 -3 5 5 10 13 9 13 11 0 20 -8 5 -10
10 -5 10 6 0 17 -5 25 -10z m1206 -25 c-11 -8 -25 -15 -30 -15 -6 1 0 7 14 15
32 19 40 18 16 0z m-3206 -10 c0 -8 -2 -15 -4 -15 -2 0 -6 7 -10 15 -3 8 -1
15 4 15 6 0 10 -7 10 -15z m215 5 c3 -6 -1 -7 -9 -4 -18 7 -21 14 -7 14 6 0
13 -4 16 -10z m2324 -37 c3 -2 -5 -13 -16 -26 -25 -27 -63 -100 -63 -122 0 -9
-12 -37 -26 -61 -22 -38 -26 -54 -22 -100 3 -30 1 -51 -3 -47 -11 11 -13 92
-4 122 7 21 6 23 -10 17 -17 -6 -18 -5 -3 11 8 10 21 29 27 43 12 24 11 24
-13 -3 -28 -30 -33 -28 -14 6 10 20 10 21 -5 8 -10 -8 -17 -9 -17 -3 0 6 -19
12 -42 14 -27 2 -42 8 -41 15 2 7 -4 10 -13 6 -11 -4 -12 -8 -4 -13 6 -4 -10
-7 -35 -8 -46 0 -46 0 -28 21 10 11 -10 1 -44 -23 -35 -24 -66 -41 -69 -37 -4
4 2 10 12 14 10 4 28 15 39 26 22 21 169 119 227 152 36 21 41 21 100 7 35 -8
65 -17 67 -19z m796 27 c-3 -5 -12 -10 -18 -10 -7 0 -6 4 3 10 19 12 23 12 15
0z m-3060 -20 c22 -11 33 -20 25 -20 -8 0 -28 9 -45 20 -38 25 -30 25 20 0z
m-1458 -37 c-3 -10 -5 -2 -5 17 0 19 2 27 5 18 2 -10 2 -26 0 -35z m4434 30
c13 -17 13 -17 -6 -3 -11 8 -22 16 -24 17 -2 2 0 3 6 3 6 0 17 -8 24 -17z
m-3032 -47 c14 -8 45 -36 68 -63 37 -44 109 -91 165 -107 9 -3 26 -23 38 -46
19 -37 19 -41 4 -47 -10 -3 -45 1 -78 10 -34 10 -147 40 -252 69 l-191 51 60
93 59 93 50 -20 c27 -11 62 -26 77 -33z m1654 7 c-7 -2 -19 -2 -25 0 -7 3 -2
5 12 5 14 0 19 -2 13 -5z m831 -28 c-14 -35 -14 -35 12 -35 17 0 28 -6 31 -20
7 -25 8 -25 59 5 63 37 146 55 257 55 91 0 100 -2 123 -25 41 -41 57 -92 56
-177 0 -67 -5 -86 -33 -142 -36 -71 -34 -71 -174 -78 l-50 -3 -3 46 c-3 46 -3
47 39 63 33 13 39 20 28 27 -28 18 -63 8 -172 -47 -161 -80 -234 -95 -304 -61
-35 16 -27 31 28 50 64 23 59 41 -12 45 -63 4 -91 24 -87 61 3 25 5 26 66 23
58 -4 63 -2 60 15 -2 10 -21 27 -43 39 -22 11 -41 27 -43 36 -5 26 61 101 113
130 28 15 53 28 57 28 4 0 0 -16 -8 -35z m2132 23 c5 -8 2 -9 -11 -4 -11 4
-26 0 -39 -11 l-21 -18 19 23 c21 24 41 28 52 10z m-5986 -92 c-1 -6 -7 4 -15
23 -8 18 -15 38 -15 45 1 6 7 -4 15 -23 8 -18 15 -38 15 -45z m5980 37 c-11
-17 -11 -17 -6 0 3 10 6 24 7 30 0 9 2 9 5 0 3 -7 0 -20 -6 -30z m-7 -48 c26
0 47 -4 47 -8 0 -4 -24 -7 -52 -5 l-53 3 -2 40 -1 40 6 -35 c7 -34 8 -35 55
-35z m-4399 30 c11 -8 15 -15 10 -15 -6 0 -19 7 -30 15 -10 8 -14 14 -9 14 6
0 19 -6 29 -14z m4482 3 c4 -7 3 -8 -5 -4 -6 4 -20 2 -29 -6 -15 -12 -16 -11
-3 5 16 20 27 22 37 5z m-5956 -2 c0 -3 -4 -8 -10 -11 -5 -3 -10 -1 -10 4 0 6
5 11 10 11 6 0 10 -2 10 -4z m4705 -5 c17 -7 16 -9 -10 -15 -17 -4 -56 -19
-87 -33 -56 -25 -58 -25 -84 -8 -26 17 -26 18 -8 28 21 12 118 35 149 35 11 1
29 -3 40 -7z m-4763 -33 c-16 -16 -25 -19 -33 -11 -8 8 -7 13 2 18 8 5 10 4 5
-3 -11 -17 9 -15 24 3 7 8 15 15 18 15 4 0 -4 -10 -16 -22z m1591 15 c-7 -2
-19 -2 -25 0 -7 3 -2 5 12 5 14 0 19 -2 13 -5z m4417 -3 c0 -5 -5 -10 -11 -10
-5 0 -7 5 -4 10 3 6 8 10 11 10 2 0 4 -4 4 -10z m-5960 -74 c-23 -30 -58 -67
-78 -82 -28 -21 -22 -11 24 37 33 35 66 75 73 87 7 13 15 21 18 19 3 -3 -14
-30 -37 -61z m4483 10 c15 -13 27 -27 27 -32 0 -5 -17 -25 -37 -44 -49 -48
-92 -117 -105 -168 -9 -37 -14 -43 -32 -38 -12 3 -26 6 -32 6 -7 0 1 26 18 61
16 33 35 90 42 127 11 58 16 70 46 89 41 28 39 28 73 -1z m-4764 -13 c32 4 64
9 73 12 9 4 19 -4 27 -22 11 -24 10 -29 -6 -41 -24 -19 -132 -69 -165 -77 -30
-8 -33 -2 -43 92 l-7 62 32 -16 c24 -11 47 -14 89 -10z m3423 -27 c-9 -25 -18
-43 -20 -42 -6 7 21 96 28 91 4 -3 0 -25 -8 -49z m-1467 -25 c-3 -3 -18 8 -33
23 l-27 29 32 -23 c18 -13 30 -26 28 -29z m-2996 -45 c31 -14 51 -26 45 -26
-6 0 -32 9 -57 20 -44 20 -77 52 -77 75 0 5 8 -2 17 -17 10 -15 41 -38 72 -52z
m4438 -8 c-3 -8 -6 -5 -6 6 -1 11 2 17 5 13 3 -3 4 -12 1 -19z m-3753 -33 c-9
-14 -18 -25 -21 -25 -5 0 5 18 20 38 17 22 18 13 1 -13z m3961 11 c40 -17 42
-25 17 -56 -17 -21 -21 -22 -54 -10 -61 22 -117 -8 -91 -49 5 -8 34 -26 64
-38 30 -12 47 -22 38 -23 -24 0 -130 49 -156 73 -31 28 -29 61 5 85 15 10 34
22 42 25 29 11 101 7 135 -7z m-4463 -17 c50 -8 50 -8 -14 -3 -37 2 -78 9 -90
14 -24 10 -26 10 104 -11z m2078 -79 c0 -116 6 -121 65 -60 36 36 44 40 90 40
l50 -1 -64 -58 -65 -58 -73 26 -73 26 0 93 0 92 35 0 35 0 0 -100z m-1510 43
c-11 -17 -11 -17 -6 0 3 10 6 24 7 30 0 9 2 9 5 0 3 -7 0 -20 -6 -30z m3598
-28 c-7 -8 -48 35 -48 49 0 6 12 -2 27 -16 15 -15 24 -30 21 -33z m475 7 c-47
-35 -53 -35 -53 2 0 40 24 52 53 27 18 -15 18 -16 0 -29z m-4183 11 c-7 -10
-24 -27 -38 -37 -30 -22 -29 -20 13 27 32 36 44 41 25 10z m1105 -3 c-10 -11
-21 -18 -23 -15 -3 3 3 12 14 20 27 20 30 18 9 -5z m-218 4 c-3 -3 -12 -4 -19
-1 -8 3 -5 6 6 6 11 1 17 -2 13 -5z m168 -14 c11 -4 -17 -6 -65 -3 -47 3 -87
7 -89 9 -9 8 135 2 154 -6z m-896 -95 c18 -19 41 -35 51 -35 10 0 21 -4 25 -9
8 -13 -53 5 -73 21 -20 16 -72 98 -72 112 1 6 9 -4 18 -21 10 -18 32 -49 51
-68z m189 68 c-10 -2 -28 -2 -40 0 -13 2 -5 4 17 4 22 1 32 -1 23 -4z m4290
-21 c1 -26 -4 -29 -63 -45 -100 -27 -105 -20 -25 27 41 25 78 45 81 45 3 1 6
-12 7 -27z m-5270 -8 c18 -8 78 -19 134 -24 l103 -9 -100 4 c-90 3 -175 22
-175 39 0 9 4 8 38 -10z m562 7 c0 -5 -12 -16 -27 -26 l-28 -17 25 25 c28 29
30 30 30 18z m1550 -16 c11 -10 18 -20 16 -22 -2 -3 -48 1 -102 8 -90 11 -95
13 -73 26 34 19 132 12 159 -12z m2268 -115 l2 -140 -40 0 -40 0 0 140 0 140
38 0 38 0 2 -140z m351 136 c-2 -2 -14 -9 -26 -15 -19 -10 -23 -9 -23 4 0 10
9 15 27 15 14 0 24 -2 22 -4z m-1409 -50 c0 -18 -7 -39 -15 -46 -13 -11 -15
-8 -15 14 0 33 -13 33 -29 0 -10 -23 -9 -26 4 -21 8 4 15 2 15 -3 0 -6 -4 -10
-9 -10 -5 0 -16 -3 -24 -6 -12 -4 -11 6 7 50 17 45 26 56 44 56 18 0 22 -5 22
-34z m-2967 17 c-13 -2 -35 -2 -50 0 -16 2 -5 4 22 4 28 0 40 -2 28 -4z m5527
-4 c0 -9 -17 -47 -25 -57 -5 -5 -55 21 -55 29 0 12 43 39 62 39 10 0 18 -5 18
-11z m-5430 -49 c-19 -11 -39 -19 -45 -19 -5 0 6 8 25 19 19 11 40 19 45 19 6
0 -6 -8 -25 -19z m5279 -31 c2 -7 24 -31 47 -52 48 -44 51 -52 29 -84 -15 -21
-16 -21 -72 38 -31 32 -60 59 -65 59 -4 0 -8 -27 -8 -60 l0 -60 -35 0 -35 0 0
99 0 99 67 -13 c37 -7 69 -19 72 -26z m-372 1 c-9 -25 -9 -36 3 -58 19 -33 82
-53 108 -34 32 23 43 24 62 7 28 -25 25 -32 -20 -55 -109 -56 -230 12 -230
130 0 24 5 29 28 33 62 9 61 10 49 -23z m-4994 -6 c-17 -7 -51 -16 -75 -19
-35 -4 -31 -2 22 13 79 23 96 25 53 6z m4892 6 c10 -16 -15 -91 -38 -116 -65
-68 -203 -54 -251 27 -13 23 -14 30 -4 33 7 2 21 7 31 10 13 4 28 -4 48 -25
26 -28 34 -31 71 -26 47 6 68 27 68 68 0 21 6 29 23 32 39 8 46 7 52 -3z
m-5165 -10 c0 -3 8 -6 18 -7 9 -1 42 -6 72 -12 l55 -10 -55 4 c-68 5 -109 13
-129 25 -12 7 -9 9 12 8 15 -1 27 -5 27 -8z m133 3 c-13 -2 -35 -2 -50 0 -16
2 -5 4 22 4 28 0 40 -2 28 -4z m6015 -37 c32 -17 62 -65 62 -99 0 -29 -8 -30
-84 -6 -39 12 -38 13 -31 -21 13 -58 -51 -110 -134 -110 -30 0 -41 -4 -41 -15
0 -19 47 -65 66 -65 18 0 18 -2 -7 -45 -20 -33 -20 -37 -5 -54 15 -17 22 -41
11 -41 -3 0 -31 13 -63 29 -31 16 -77 32 -102 36 -50 8 -124 37 -134 53 -7 12
51 141 91 204 15 24 28 44 29 46 0 1 17 -5 37 -13 67 -28 86 -21 153 50 52 56
65 65 95 65 19 -1 44 -6 57 -14z m-1692 -56 c16 0 35 5 41 11 13 13 85 1 80
-14 -8 -26 -59 -51 -111 -55 -47 -4 -62 0 -101 22 -25 15 -45 29 -45 31 0 2 9
13 21 24 21 19 21 19 53 0 17 -10 45 -19 62 -19z m-2126 -47 c0 -24 -46 -13
-75 17 -15 16 -32 27 -37 24 -4 -3 -8 -3 -8 0 0 2 -3 12 -6 21 -5 12 10 8 60
-17 36 -18 66 -38 66 -45z m2426 58 c5 -5 23 -11 39 -13 24 -2 31 -8 33 -30 3
-27 2 -28 -44 -28 -38 0 -54 5 -76 27 -35 33 -35 41 0 46 15 2 29 5 33 6 3 0
9 -3 15 -8z m1539 -65 c8 -13 13 -30 9 -39 -12 -33 -154 -110 -172 -93 -3 4
-1 19 4 34 8 23 16 27 54 30 51 3 70 21 70 64 0 34 14 36 35 4z m-4036 -66 c0
-8 -7 1 -14 20 -18 46 -17 64 0 25 8 -16 14 -37 14 -45z m155 39 c32 -18 34
-23 24 -42 -6 -11 -14 -32 -19 -46 -6 -21 -7 -22 -8 -6 -1 11 5 32 13 47 12
23 12 27 -1 32 -18 7 -66 -40 -57 -56 4 -6 10 -5 15 3 7 11 9 9 9 -6 0 -25
-40 -30 -41 -5 0 10 -3 9 -9 -5 -7 -16 -9 -11 -9 22 -1 31 5 48 21 63 26 24
20 24 62 -1z m70 -51 c-4 -6 -11 -25 -15 -42 -5 -25 -7 -26 -8 -8 -1 23 15 62
25 62 3 0 2 -5 -2 -12z m41 -38 c-10 -11 -25 -20 -34 -19 -11 0 -10 3 5 9 12
4 24 16 28 26 3 9 9 14 13 10 3 -3 -2 -15 -12 -26z m2063 24 c35 -10 25 -23
-13 -17 -43 7 -65 -9 -65 -48 0 -39 37 -58 77 -40 29 13 22 27 -17 34 -18 3
-15 5 13 6 34 1 37 -1 37 -26 0 -26 -3 -28 -44 -31 -60 -4 -84 21 -76 78 2 16
39 50 55 50 6 0 20 -3 33 -6z m-348 -19 c0 -10 11 -15 35 -15 28 0 38 -5 46
-24 15 -31 -4 -66 -34 -65 l-22 0 23 10 c35 13 27 63 -10 67 -19 2 -28 -2 -33
-17 -3 -12 -3 -26 1 -33 5 -9 4 -10 -4 -3 -12 12 -21 95 -10 95 5 0 8 -7 8
-15z m541 -42 c-1 -28 4 -50 11 -55 10 -5 8 -8 -4 -8 -14 0 -18 9 -18 40 0 25
-5 40 -12 41 -10 0 -10 2 0 6 6 2 12 12 12 21 0 8 3 12 7 9 3 -4 5 -28 4 -54z
m61 -15 c2 -27 0 -48 -4 -48 -5 0 -8 18 -8 40 0 25 -5 40 -12 41 -10 0 -10 2
0 6 6 2 13 12 13 21 2 26 7 -5 11 -60z m230 12 c2 -49 0 -60 -13 -60 -13 0
-14 9 -8 53 3 28 5 55 2 60 -2 4 0 7 6 7 5 0 11 -27 13 -60z m-2782 30 c8 -5
11 -12 7 -16 -4 -4 -15 0 -24 9 -18 18 -8 23 17 7z m2445 -31 c0 -9 -14 -15
-38 -17 -24 -2 -37 -8 -34 -15 5 -17 45 -21 65 -5 15 12 16 11 3 -4 -30 -39
-96 -4 -84 43 11 41 88 39 88 -2z m-370 22 c-3 -5 0 -21 7 -36 l12 -26 13 26
c8 14 11 30 8 35 -3 6 3 10 15 10 19 0 20 -2 7 -15 -9 -8 -21 -31 -27 -50 -6
-19 -16 -35 -22 -35 -6 0 -9 3 -6 6 8 7 -21 77 -36 86 -6 5 -1 8 12 8 13 0 21
-4 17 -9z m541 0 c-4 -5 -1 -22 5 -38 l11 -28 12 30 c9 21 10 32 2 37 -6 5 -2
8 10 8 21 0 21 0 -3 -50 -13 -28 -21 -55 -18 -60 3 -6 4 -10 1 -10 -2 0 -12
-3 -21 -6 -15 -6 -15 -4 -4 14 11 18 11 28 0 59 -8 21 -19 41 -25 45 -6 5 -1
8 12 8 13 0 21 -4 18 -9z m235 0 c-9 -6 -12 -21 -9 -45 3 -31 1 -36 -17 -36
-15 0 -17 2 -6 9 9 6 12 21 9 45 -3 31 -1 36 17 36 15 0 17 -2 6 -9z m109 -24
c0 -18 5 -38 12 -45 9 -9 8 -12 -8 -12 -17 0 -19 6 -16 41 4 38 3 40 -19 37
-18 -2 -25 -10 -27 -32 -2 -16 2 -32 10 -37 9 -6 8 -9 -7 -9 -18 0 -20 5 -17
36 3 20 0 39 -6 43 -6 4 9 8 33 9 45 2 45 1 45 -31z m132 -5 c-3 -22 0 -37 9
-43 9 -6 -4 -9 -36 -9 -55 0 -75 12 -75 45 0 32 20 45 65 43 40 -1 41 -1 37
-36z m130 -12 c-2 -27 -8 -50 -13 -50 -5 0 -9 3 -9 8 0 4 -14 7 -31 7 -38 0
-54 22 -45 58 6 25 11 27 54 27 l47 0 -3 -50z m108 35 c14 -17 5 -35 -18 -34
-16 0 -16 1 0 7 25 10 6 35 -23 30 -31 -4 -39 -46 -13 -65 16 -12 16 -13 1
-13 -16 0 -37 28 -37 49 0 34 67 54 90 26z m700 -20 c0 -16 -84 -79 -131 -99
-53 -22 -125 -30 -134 -15 -10 16 38 59 66 59 29 0 126 36 157 58 28 21 42 20
42 -3z m-4011 -38 c5 -18 12 -41 16 -52 4 -11 -2 -5 -14 12 -25 39 -39 89 -23
79 6 -4 15 -21 21 -39z m125 0 c7 -6 6 -7 -4 -4 -8 2 -16 12 -17 23 -2 13 -1
15 4 4 3 -8 11 -19 17 -23z m97 6 c-10 -20 -58 -64 -81 -77 -8 -4 1 7 20 24
19 17 35 35 35 41 0 5 7 14 15 19 21 13 22 12 11 -7z m-54 -19 c-3 -3 -12 -4
-19 -1 -8 3 -5 6 6 6 11 1 17 -2 13 -5z m1783 -63 c87 -45 133 -59 250 -75
l85 -12 -55 -18 c-74 -24 -194 -80 -252 -117 l-47 -31 -58 17 c-72 21 -143 59
-178 95 l-26 28 43 34 c66 53 152 118 158 118 2 0 38 -18 80 -39z m140 29 c0
-12 -8 -12 -35 0 -18 8 -17 9 8 9 15 1 27 -3 27 -9z m-2009 -48 c-13 -2 -27 0
-32 5 -6 6 3 7 23 4 28 -4 29 -6 9 -9z m2974 -5 c-11 -8 -52 -32 -90 -55 l-70
-41 -80 26 c-71 24 -94 27 -208 26 -71 -1 -127 0 -125 2 3 4 308 43 378 48 25
2 83 4 130 5 73 2 82 0 65 -11z m835 -60 c0 -27 -31 -57 -60 -57 -27 0 -70 32
-70 51 0 4 21 10 48 12 26 2 55 4 65 5 9 1 17 -4 17 -11z m-1209 -51 c79 -17
153 -53 232 -112 63 -49 69 -51 87 -29 19 23 130 95 147 95 10 0 5 -11 -16
-35 -28 -32 -66 -95 -58 -95 2 0 39 9 82 20 43 11 82 20 86 20 4 0 -17 -24
-47 -54 -30 -30 -54 -59 -54 -65 0 -7 28 -11 73 -12 61 0 68 -2 47 -11 -14 -6
-122 -58 -240 -114 -118 -57 -229 -106 -247 -110 -32 -6 -33 -6 -67 69 -39 86
-74 115 -166 141 -82 23 -326 39 -472 31 -116 -7 -128 -6 -128 10 0 30 19 53
95 109 109 83 275 156 275 122 0 -12 10 -11 68 1 56 12 166 27 222 32 8 0 45
-6 81 -13z m-908 -125 c42 -17 80 -31 86 -31 17 0 13 -18 -15 -60 -28 -42 -34
-84 -15 -103 7 -7 57 -10 138 -9 188 2 132 -20 -66 -25 -130 -4 -172 -1 -254
15 -92 20 -177 52 -197 77 -15 18 29 93 98 166 l63 68 44 -33 c23 -18 77 -47
118 -65z m-503 24 c0 -3 -9 -38 -20 -77 -35 -126 -20 -199 49 -245 60 -40 187
-29 256 22 28 20 35 21 93 12 34 -6 62 -14 62 -17 0 -10 -92 -76 -135 -97 -80
-40 -149 -57 -230 -57 -110 0 -152 14 -224 79 -34 30 -73 58 -87 61 -29 8
-212 -2 -239 -13 -33 -12 -7 13 54 53 33 21 60 42 61 46 0 3 -24 9 -52 13 -93
11 -97 15 -52 38 21 11 65 30 97 42 32 12 59 26 60 31 1 5 -21 21 -48 36 l-50
27 30 11 c55 22 169 38 273 39 56 1 102 -1 102 -4z"/>
<path d="M2485 4110 c-3 -5 1 -10 9 -10 9 0 16 5 16 10 0 6 -4 10 -9 10 -6 0
-13 -4 -16 -10z"/>
<path d="M2839 2503 c-13 -15 -12 -15 11 -3 34 17 36 20 18 20 -9 0 -22 -7
-29 -17z"/>
<path d="M4754 4036 c-9 -23 0 -51 16 -51 10 0 15 10 15 29 0 32 -21 47 -31
22z"/>
<path d="M4570 4035 c-7 -9 -10 -25 -6 -41 5 -19 12 -25 29 -22 25 3 35 41 17
64 -16 18 -24 18 -40 -1z"/>
<path d="M9202 3378 c-13 -7 -27 -27 -34 -49 -15 -50 8 -89 52 -89 55 0 82 88
40 130 -23 23 -26 23 -58 8z"/>
<path d="M6180 3279 c0 -5 9 -9 20 -9 11 0 20 2 20 4 0 2 -9 6 -20 9 -11 3
-20 1 -20 -4z"/>
<path d="M6040 3240 c0 -5 4 -10 9 -10 6 0 13 5 16 10 3 6 -1 10 -9 10 -9 0
-16 -4 -16 -10z"/>
<path d="M7126 3301 c-4 -5 4 -7 16 -4 22 6 22 6 -2 -15 l-25 -22 33 11 c18 6
36 9 39 5 4 -3 -1 -6 -10 -6 -13 0 -14 -6 -7 -31 5 -18 7 -36 3 -42 -3 -5 1
-13 8 -18 8 -5 16 -3 21 4 4 6 29 19 55 28 l48 16 -75 41 c-77 43 -95 49 -104
33z m112 -50 c22 -19 31 -38 12 -26 -5 3 -20 1 -32 -5 -21 -10 -21 -10 -5 3
20 17 23 31 4 24 -8 -3 -14 1 -14 9 0 18 7 17 35 -5z"/>
<path d="M7119 3172 c17 -13 -1 -24 -26 -16 -16 6 -16 5 2 -9 21 -16 49 -12
38 6 -4 6 0 8 9 5 8 -4 21 -2 29 3 11 7 9 9 -8 9 -12 0 -30 3 -40 6 -13 4 -15
3 -4 -4z"/>
<path d="M6371 2851 c-9 -6 -10 -14 -4 -25 9 -16 11 -16 23 -1 11 13 10 14 -6
8 -17 -6 -17 -5 -5 10 15 19 13 21 -8 8z"/>
<path d="M6535 2744 c-9 -14 -15 -27 -13 -30 2 -2 12 10 22 26 21 37 15 40 -9
4z"/>
<path d="M6497 2044 c-15 -16 -5 -24 29 -24 24 0 34 4 32 13 -5 13 -50 22 -61
11z"/>
<path d="M7125 2030 c-4 -12 -1 -27 5 -35 27 -33 78 -5 65 35 -4 14 -15 20
-35 20 -20 0 -31 -6 -35 -20z"/>
<path d="M7253 2034 c-9 -24 10 -49 38 -49 20 0 24 5 24 30 0 25 -4 30 -28 33
-18 2 -29 -2 -34 -14z"/>
<path d="M4437 4837 c-3 -8 4 -34 14 -58 11 -24 26 -79 32 -124 l13 -80 17 26
c38 57 30 186 -14 230 -22 22 -55 25 -62 6z"/>
<path d="M5023 4510 c-59 -26 -136 -106 -158 -163 -10 -26 -16 -49 -14 -51 8
-7 286 31 306 43 62 33 71 105 19 157 -40 40 -86 45 -153 14z m88 -50 c22 -13
25 -43 5 -60 -13 -10 -165 -32 -174 -25 -6 5 84 74 109 84 32 13 37 13 60 1z"/>
<path d="M745 2378 c-35 -19 -65 -51 -65 -69 0 -14 -11 -19 -47 -25 -64 -9
-97 -27 -122 -67 -34 -56 -37 -107 -8 -170 34 -76 79 -107 159 -114 35 -3 81
-14 104 -24 54 -25 155 -25 209 0 113 52 168 206 100 281 -20 22 -80 44 -95
35 -6 -4 -10 9 -10 34 0 47 -36 96 -87 117 -39 17 -110 18 -138 2z m134 -73
c30 -15 41 -39 41 -92 0 -22 5 -33 14 -33 26 0 66 -59 66 -96 0 -47 -24 -100
-52 -115 -24 -13 -141 -19 -153 -8 -3 4 5 24 20 44 14 21 25 49 25 62 0 34
-42 73 -80 73 -41 0 -66 -28 -74 -84 -7 -42 -10 -46 -36 -46 -17 0 -40 11 -59
29 -37 35 -42 88 -12 137 18 30 74 64 105 64 8 0 22 13 31 30 8 16 23 34 32
39 26 15 100 13 132 -4z m-89 -240 c0 -16 -47 -51 -56 -42 -7 6 15 49 30 59
13 9 26 0 26 -17z"/>
<path d="M1375 2278 c-11 -6 -32 -24 -47 -40 -14 -15 -35 -28 -47 -28 -11 0
-36 -15 -55 -34 -63 -64 -56 -157 16 -187 40 -17 112 -17 132 1 13 10 23 9 56
-4 48 -19 70 -20 105 -4 32 14 65 75 65 118 0 34 -46 90 -74 90 -9 0 -16 8
-16 19 0 52 -88 98 -135 69z m77 -74 c19 -23 40 -43 66 -62 21 -15 22 -21 12
-46 -20 -54 -73 -72 -116 -41 -19 13 -23 12 -43 -10 -11 -14 -32 -25 -45 -25
-28 0 -76 35 -76 56 0 33 31 72 73 92 24 11 49 27 56 36 17 20 56 21 73 0z"/>
<path d="M4589 1775 c-14 -7 -30 -25 -36 -38 -9 -18 -23 -27 -51 -32 -68 -11
-98 -62 -80 -135 14 -53 51 -83 94 -76 23 5 35 1 49 -14 24 -26 75 -26 103 0
12 12 25 38 28 60 4 22 12 45 20 51 40 33 37 136 -7 180 -23 23 -82 25 -120 4z
m55 -45 c22 -8 26 -16 26 -51 0 -22 -6 -53 -14 -67 -8 -15 -19 -39 -25 -54 -7
-20 -18 -28 -35 -28 -14 0 -28 5 -31 10 -3 6 -17 7 -31 4 -33 -8 -54 12 -54
52 0 37 29 64 67 64 18 0 23 6 23 24 0 14 10 32 22 40 27 19 21 18 52 6z"/>
<path d="M3933 1721 c-41 -19 -73 -61 -73 -98 0 -12 -15 -24 -45 -37 -51 -21
-72 -52 -81 -118 -10 -79 73 -189 142 -188 16 0 70 0 119 0 117 1 161 13 206
58 75 76 88 189 30 254 -22 25 -35 31 -69 31 -37 0 -42 3 -47 27 -7 32 -39 64
-78 79 -39 15 -55 14 -104 -8z m141 -73 c8 -13 18 -35 21 -50 4 -16 13 -28 20
-28 24 0 64 -40 75 -76 20 -59 -1 -111 -53 -135 -23 -10 -54 -19 -69 -19 -25
0 -27 2 -18 26 26 69 1 124 -56 124 -47 0 -68 -33 -59 -94 l7 -46 -36 0 c-52
0 -86 36 -86 90 0 52 22 96 59 115 18 9 32 26 36 44 10 47 43 69 107 70 28 1
41 -4 52 -21z m-64 -243 c-15 -28 -30 -33 -30 -9 0 28 21 57 33 45 8 -8 7 -18
-3 -36z"/>
</g>
</svg>
